<svg width="18" height="90" viewBox="0 0 18 90" fill="none" xmlns="http://www.w3.org/2000/svg">
<path fill-rule="evenodd" clip-rule="evenodd" d="M8.99998 2.25C9.13999 2.24991 9.27724 2.28901 9.39618 2.36289C9.51512 2.43676 9.611 2.54245 9.67298 2.668L11.555 6.483L15.765 7.095C15.9034 7.11511 16.0335 7.17355 16.1405 7.26372C16.2475 7.35388 16.3271 7.47218 16.3704 7.60523C16.4137 7.73829 16.4189 7.8808 16.3854 8.01665C16.3519 8.1525 16.2811 8.27628 16.181 8.374L13.135 11.344L13.854 15.536C13.8777 15.6739 13.8623 15.8157 13.8097 15.9454C13.757 16.0751 13.6691 16.1874 13.5559 16.2697C13.4427 16.352 13.3087 16.401 13.1691 16.4111C13.0295 16.4212 12.8899 16.3921 12.766 16.327L8.99998 14.347L5.23398 16.327C5.11017 16.392 4.97065 16.4211 4.83117 16.411C4.6917 16.4009 4.55782 16.352 4.44466 16.2699C4.33151 16.1877 4.24357 16.0755 4.19079 15.946C4.13802 15.8165 4.12249 15.6749 4.14598 15.537L4.86598 11.343L1.81798 8.374C1.71755 8.27632 1.64648 8.15247 1.61283 8.01647C1.57919 7.88047 1.5843 7.73777 1.62761 7.60453C1.67091 7.47129 1.75066 7.35284 1.85784 7.26261C1.96501 7.17238 2.09531 7.11397 2.23398 7.094L6.44398 6.483L8.32698 2.668C8.38896 2.54245 8.48485 2.43676 8.60379 2.36289C8.72272 2.28901 8.85997 2.24991 8.99998 2.25ZM8.99998 4.695L7.61498 7.5C7.5612 7.6089 7.48177 7.70311 7.38353 7.77453C7.28528 7.84595 7.17116 7.89244 7.05098 7.91L3.95398 8.36L6.19398 10.544C6.28113 10.6289 6.34634 10.7337 6.38397 10.8493C6.4216 10.965 6.43052 11.0881 6.40998 11.208L5.88198 14.292L8.65098 12.836C8.75861 12.7794 8.87838 12.7499 8.99998 12.7499C9.12158 12.7499 9.24135 12.7794 9.34898 12.836L12.119 14.292L11.589 11.208C11.5684 11.0881 11.5774 10.965 11.615 10.8493C11.6526 10.7337 11.7178 10.6289 11.805 10.544L14.045 8.361L10.949 7.911C10.8288 7.89344 10.7147 7.84695 10.6164 7.77553C10.5182 7.70411 10.4388 7.6099 10.385 7.501L8.99998 4.695Z" fill="#555555"/>
<path fill-rule="evenodd" clip-rule="evenodd" d="M9 37C4.58 37 1 40.58 1 45C1 48.54 3.29 51.53 6.47 52.59C6.87 52.66 7.02 52.42 7.02 52.21C7.02 52.02 7.01 51.39 7.01 50.72C5 51.09 4.48 50.23 4.32 49.78C4.23 49.55 3.84 48.84 3.5 48.65C3.22 48.5 2.82 48.13 3.49 48.12C4.12 48.11 4.57 48.7 4.72 48.94C5.44 50.15 6.59 49.81 7.05 49.6C7.12 49.08 7.33 48.73 7.56 48.53C5.78 48.33 3.92 47.64 3.92 44.58C3.92 43.71 4.23 42.99 4.74 42.43C4.66 42.23 4.38 41.41 4.82 40.31C4.82 40.31 5.49 40.1 7.02 41.13C7.66 40.95 8.34 40.86 9.02 40.86C9.7 40.86 10.38 40.95 11.02 41.13C12.55 40.09 13.22 40.31 13.22 40.31C13.66 41.41 13.38 42.23 13.3 42.43C13.81 42.99 14.12 43.7 14.12 44.58C14.12 47.65 12.25 48.33 10.47 48.53C10.76 48.78 11.01 49.26 11.01 50.01C11.01 51.08 11 51.94 11 52.21C11 52.42 11.15 52.67 11.55 52.59C13.1381 52.0539 14.5182 51.0332 15.4958 49.6716C16.4735 48.3101 16.9996 46.6762 17 45C17 40.58 13.42 37 9 37Z" fill="#555555"/>
<path fill-rule="evenodd" clip-rule="evenodd" d="M9 55C4.58 55 1 58.58 1 63C1 66.54 3.29 69.53 6.47 70.59C6.87 70.66 7.02 70.42 7.02 70.21C7.02 70.02 7.01 69.39 7.01 68.72C5 69.09 4.48 68.23 4.32 67.78C4.23 67.55 3.84 66.84 3.5 66.65C3.22 66.5 2.82 66.13 3.49 66.12C4.12 66.11 4.57 66.7 4.72 66.94C5.44 68.15 6.59 67.81 7.05 67.6C7.12 67.08 7.33 66.73 7.56 66.53C5.78 66.33 3.92 65.64 3.92 62.58C3.92 61.71 4.23 60.99 4.74 60.43C4.66 60.23 4.38 59.41 4.82 58.31C4.82 58.31 5.49 58.1 7.02 59.13C7.66 58.95 8.34 58.86 9.02 58.86C9.7 58.86 10.38 58.95 11.02 59.13C12.55 58.09 13.22 58.31 13.22 58.31C13.66 59.41 13.38 60.23 13.3 60.43C13.81 60.99 14.12 61.7 14.12 62.58C14.12 65.65 12.25 66.33 10.47 66.53C10.76 66.78 11.01 67.26 11.01 68.01C11.01 69.08 11 69.94 11 70.21C11 70.42 11.15 70.67 11.55 70.59C13.1381 70.0539 14.5182 69.0332 15.4958 67.6716C16.4735 66.3101 16.9996 64.6762 17 63C17 58.58 13.42 55 9 55Z" fill="#5B99BC"/>
<path fill-rule="evenodd" clip-rule="evenodd" d="M9 73C4.58 73 1 76.58 1 81C1 84.54 3.29 87.53 6.47 88.59C6.87 88.66 7.02 88.42 7.02 88.21C7.02 88.02 7.01 87.39 7.01 86.72C5 87.09 4.48 86.23 4.32 85.78C4.23 85.55 3.84 84.84 3.5 84.65C3.22 84.5 2.82 84.13 3.49 84.12C4.12 84.11 4.57 84.7 4.72 84.94C5.44 86.15 6.59 85.81 7.05 85.6C7.12 85.08 7.33 84.73 7.56 84.53C5.78 84.33 3.92 83.64 3.92 80.58C3.92 79.71 4.23 78.99 4.74 78.43C4.66 78.23 4.38 77.41 4.82 76.31C4.82 76.31 5.49 76.1 7.02 77.13C7.66 76.95 8.34 76.86 9.02 76.86C9.7 76.86 10.38 76.95 11.02 77.13C12.55 76.09 13.22 76.31 13.22 76.31C13.66 77.41 13.38 78.23 13.3 78.43C13.81 78.99 14.12 79.7 14.12 80.58C14.12 83.65 12.25 84.33 10.47 84.53C10.76 84.78 11.01 85.26 11.01 86.01C11.01 87.08 11 87.94 11 88.21C11 88.42 11.15 88.67 11.55 88.59C13.1381 88.0539 14.5182 87.0332 15.4958 85.6716C16.4735 84.3101 16.9996 82.6762 17 81C17 76.58 13.42 73 9 73Z" fill="#BD4B44"/>
<path fill-rule="evenodd" clip-rule="evenodd" d="M11.5 27.75C11.5 28.413 11.2366 29.0489 10.7678 29.5178C10.2989 29.9866 9.66304 30.25 9 30.25C8.33696 30.25 7.70107 29.9866 7.23223 29.5178C6.76339 29.0489 6.5 28.413 6.5 27.75C6.5 27.087 6.76339 26.4511 7.23223 25.9822C7.70107 25.5134 8.33696 25.25 9 25.25C9.66304 25.25 10.2989 25.5134 10.7678 25.9822C11.2366 26.4511 11.5 27.087 11.5 27.75V27.75ZM12.93 28.5C12.7543 29.4135 12.2659 30.2373 11.5487 30.8298C10.8315 31.4222 9.93026 31.7463 9 31.7463C8.06974 31.7463 7.16853 31.4222 6.45131 30.8298C5.73409 30.2373 5.24567 29.4135 5.07 28.5H1.75C1.55109 28.5 1.36032 28.421 1.21967 28.2803C1.07902 28.1397 1 27.9489 1 27.75C1 27.5511 1.07902 27.3603 1.21967 27.2197C1.36032 27.079 1.55109 27 1.75 27H5.07C5.2446 26.0856 5.73259 25.2607 6.44994 24.6674C7.16728 24.074 8.06907 23.7494 9 23.7494C9.93093 23.7494 10.8327 24.074 11.5501 24.6674C12.2674 25.2607 12.7554 26.0856 12.93 27H16.25C16.4489 27 16.6397 27.079 16.7803 27.2197C16.921 27.3603 17 27.5511 17 27.75C17 27.9489 16.921 28.1397 16.7803 28.2803C16.6397 28.421 16.4489 28.5 16.25 28.5H12.93Z" fill="#555555"/>
</svg>
