<svg width="54" height="90" viewBox="0 0 54 90" fill="none" xmlns="http://www.w3.org/2000/svg">
<path fill-rule="evenodd" clip-rule="evenodd" d="M8.99998 2.25C9.13999 2.24991 9.27724 2.28901 9.39618 2.36289C9.51512 2.43676 9.611 2.54245 9.67298 2.668L11.555 6.483L15.765 7.095C15.9034 7.11511 16.0335 7.17355 16.1405 7.26372C16.2475 7.35388 16.3271 7.47218 16.3704 7.60523C16.4137 7.73829 16.4189 7.8808 16.3854 8.01665C16.3519 8.1525 16.2811 8.27628 16.181 8.374L13.135 11.344L13.854 15.536C13.8777 15.6739 13.8623 15.8157 13.8097 15.9454C13.757 16.0751 13.6691 16.1874 13.5559 16.2697C13.4427 16.352 13.3087 16.401 13.1691 16.4111C13.0295 16.4212 12.8899 16.3921 12.766 16.327L8.99998 14.347L5.23398 16.327C5.11017 16.392 4.97065 16.4211 4.83117 16.411C4.6917 16.4009 4.55782 16.352 4.44466 16.2699C4.33151 16.1877 4.24357 16.0755 4.19079 15.946C4.13802 15.8165 4.12249 15.6749 4.14598 15.537L4.86598 11.343L1.81798 8.374C1.71755 8.27632 1.64648 8.15247 1.61283 8.01647C1.57919 7.88047 1.5843 7.73777 1.62761 7.60453C1.67091 7.47129 1.75066 7.35284 1.85784 7.26261C1.96501 7.17238 2.09531 7.11397 2.23398 7.094L6.44398 6.483L8.32698 2.668C8.38896 2.54245 8.48485 2.43676 8.60379 2.36289C8.72272 2.28901 8.85997 2.24991 8.99998 2.25ZM8.99998 4.695L7.61498 7.5C7.5612 7.6089 7.48177 7.70311 7.38353 7.77453C7.28528 7.84595 7.17116 7.89244 7.05098 7.91L3.95398 8.36L6.19398 10.544C6.28113 10.6289 6.34634 10.7337 6.38397 10.8493C6.4216 10.965 6.43052 11.0881 6.40998 11.208L5.88198 14.292L8.65098 12.836C8.75861 12.7794 8.87838 12.7499 8.99998 12.7499C9.12158 12.7499 9.24135 12.7794 9.34898 12.836L12.119 14.292L11.589 11.208C11.5684 11.0881 11.5774 10.965 11.615 10.8493C11.6526 10.7337 11.7178 10.6289 11.805 10.544L14.045 8.361L10.949 7.911C10.8288 7.89344 10.7147 7.84695 10.6164 7.77553C10.5182 7.70411 10.4388 7.6099 10.385 7.501L8.99998 4.695Z" fill="#555555"/>
<path fill-rule="evenodd" clip-rule="evenodd" d="M9 37C4.58 37 1 40.58 1 45C1 48.54 3.29 51.53 6.47 52.59C6.87 52.66 7.02 52.42 7.02 52.21C7.02 52.02 7.01 51.39 7.01 50.72C5 51.09 4.48 50.23 4.32 49.78C4.23 49.55 3.84 48.84 3.5 48.65C3.22 48.5 2.82 48.13 3.49 48.12C4.12 48.11 4.57 48.7 4.72 48.94C5.44 50.15 6.59 49.81 7.05 49.6C7.12 49.08 7.33 48.73 7.56 48.53C5.78 48.33 3.92 47.64 3.92 44.58C3.92 43.71 4.23 42.99 4.74 42.43C4.66 42.23 4.38 41.41 4.82 40.31C4.82 40.31 5.49 40.1 7.02 41.13C7.66 40.95 8.34 40.86 9.02 40.86C9.7 40.86 10.38 40.95 11.02 41.13C12.55 40.09 13.22 40.31 13.22 40.31C13.66 41.41 13.38 42.23 13.3 42.43C13.81 42.99 14.12 43.7 14.12 44.58C14.12 47.65 12.25 48.33 10.47 48.53C10.76 48.78 11.01 49.26 11.01 50.01C11.01 51.08 11 51.94 11 52.21C11 52.42 11.15 52.67 11.55 52.59C13.1381 52.0539 14.5182 51.0332 15.4958 49.6716C16.4735 48.3101 16.9996 46.6762 17 45C17 40.58 13.42 37 9 37Z" fill="#555555"/>
<path fill-rule="evenodd" clip-rule="evenodd" d="M9 55C4.58 55 1 58.58 1 63C1 66.54 3.29 69.53 6.47 70.59C6.87 70.66 7.02 70.42 7.02 70.21C7.02 70.02 7.01 69.39 7.01 68.72C5 69.09 4.48 68.23 4.32 67.78C4.23 67.55 3.84 66.84 3.5 66.65C3.22 66.5 2.82 66.13 3.49 66.12C4.12 66.11 4.57 66.7 4.72 66.94C5.44 68.15 6.59 67.81 7.05 67.6C7.12 67.08 7.33 66.73 7.56 66.53C5.78 66.33 3.92 65.64 3.92 62.58C3.92 61.71 4.23 60.99 4.74 60.43C4.66 60.23 4.38 59.41 4.82 58.31C4.82 58.31 5.49 58.1 7.02 59.13C7.66 58.95 8.34 58.86 9.02 58.86C9.7 58.86 10.38 58.95 11.02 59.13C12.55 58.09 13.22 58.31 13.22 58.31C13.66 59.41 13.38 60.23 13.3 60.43C13.81 60.99 14.12 61.7 14.12 62.58C14.12 65.65 12.25 66.33 10.47 66.53C10.76 66.78 11.01 67.26 11.01 68.01C11.01 69.08 11 69.94 11 70.21C11 70.42 11.15 70.67 11.55 70.59C13.1381 70.0539 14.5182 69.0332 15.4958 67.6716C16.4735 66.3101 16.9996 64.6762 17 63C17 58.58 13.42 55 9 55Z" fill="#5B99BC"/>
<path fill-rule="evenodd" clip-rule="evenodd" d="M9 73C4.58 73 1 76.58 1 81C1 84.54 3.29 87.53 6.47 88.59C6.87 88.66 7.02 88.42 7.02 88.21C7.02 88.02 7.01 87.39 7.01 86.72C5 87.09 4.48 86.23 4.32 85.78C4.23 85.55 3.84 84.84 3.5 84.65C3.22 84.5 2.82 84.13 3.49 84.12C4.12 84.11 4.57 84.7 4.72 84.94C5.44 86.15 6.59 85.81 7.05 85.6C7.12 85.08 7.33 84.73 7.56 84.53C5.78 84.33 3.92 83.64 3.92 80.58C3.92 79.71 4.23 78.99 4.74 78.43C4.66 78.23 4.38 77.41 4.82 76.31C4.82 76.31 5.49 76.1 7.02 77.13C7.66 76.95 8.34 76.86 9.02 76.86C9.7 76.86 10.38 76.95 11.02 77.13C12.55 76.09 13.22 76.31 13.22 76.31C13.66 77.41 13.38 78.23 13.3 78.43C13.81 78.99 14.12 79.7 14.12 80.58C14.12 83.65 12.25 84.33 10.47 84.53C10.76 84.78 11.01 85.26 11.01 86.01C11.01 87.08 11 87.94 11 88.21C11 88.42 11.15 88.67 11.55 88.59C13.1381 88.0539 14.5182 87.0332 15.4958 85.6716C16.4735 84.3101 16.9996 82.6762 17 81C17 76.58 13.42 73 9 73Z" fill="#BD4B44"/>
<path fill-rule="evenodd" clip-rule="evenodd" d="M11.5 27.75C11.5 28.413 11.2366 29.0489 10.7678 29.5178C10.2989 29.9866 9.66304 30.25 9 30.25C8.33696 30.25 7.70107 29.9866 7.23223 29.5178C6.76339 29.0489 6.5 28.413 6.5 27.75C6.5 27.087 6.76339 26.4511 7.23223 25.9822C7.70107 25.5134 8.33696 25.25 9 25.25C9.66304 25.25 10.2989 25.5134 10.7678 25.9822C11.2366 26.4511 11.5 27.087 11.5 27.75ZM12.93 28.5C12.7543 29.4135 12.2659 30.2373 11.5487 30.8298C10.8315 31.4222 9.93026 31.7463 9 31.7463C8.06974 31.7463 7.16853 31.4222 6.45131 30.8298C5.73409 30.2373 5.24567 29.4135 5.07 28.5H1.75C1.55109 28.5 1.36032 28.421 1.21967 28.2803C1.07902 28.1397 1 27.9489 1 27.75C1 27.5511 1.07902 27.3603 1.21967 27.2197C1.36032 27.079 1.55109 27 1.75 27H5.07C5.2446 26.0856 5.73259 25.2607 6.44994 24.6674C7.16728 24.074 8.06907 23.7494 9 23.7494C9.93093 23.7494 10.8327 24.074 11.5501 24.6674C12.2674 25.2607 12.7554 26.0856 12.93 27H16.25C16.4489 27 16.6397 27.079 16.7803 27.2197C16.921 27.3603 17 27.5511 17 27.75C17 27.9489 16.921 28.1397 16.7803 28.2803C16.6397 28.421 16.4489 28.5 16.25 28.5H12.93Z" fill="#555555"/>
<path d="M20.7258 37.0108C21.0228 36.9722 21.324 37.0381 21.5779 37.1971L30.232 42.1167L28.0418 44.3335L20.7258 37.0108ZM20.06 37.6765C20.0183 37.8214 19.9981 37.9717 20.0001 38.1225V51.8759C19.9981 52.0267 20.0183 52.177 20.06 52.3219L27.3828 44.9992L20.06 37.6765ZM28.0485 45.6649L20.7258 52.9876C21.0229 53.0297 21.3254 52.9636 21.5779 52.8013L30.232 47.8817L28.0485 45.6649ZM33.7203 44.1072L31.0974 42.616L28.7009 44.9992L31.0908 47.3891L33.7136 45.8979C34.5791 45.4053 34.5791 44.5931 33.7136 44.1005L33.7203 44.1072Z" fill="#555555"/>
<path d="M20.7258 55.0108C21.0228 54.9722 21.324 55.0381 21.5779 55.1971L30.232 60.1167L28.0418 62.3335L20.7258 55.0108ZM20.06 55.6765C20.0183 55.8214 19.9981 55.9717 20.0001 56.1225V69.8759C19.9981 70.0267 20.0183 70.177 20.06 70.3219L27.3828 62.9992L20.06 55.6765ZM28.0485 63.6649L20.7258 70.9876C21.0229 71.0297 21.3254 70.9636 21.5779 70.8013L30.232 65.8817L28.0485 63.6649ZM33.7203 62.1072L31.0974 60.616L28.7009 62.9992L31.0908 65.3891L33.7136 63.8979C34.5791 63.4053 34.5791 62.5931 33.7136 62.1005L33.7203 62.1072Z" fill="#5B99BC"/>
<path d="M20.7258 73.0108C21.0228 72.9722 21.324 73.0381 21.5779 73.1971L30.232 78.1167L28.0418 80.3335L20.7258 73.0108ZM20.06 73.6765C20.0183 73.8214 19.9981 73.9717 20.0001 74.1225V87.8759C19.9981 88.0267 20.0183 88.177 20.06 88.3219L27.3828 80.9992L20.06 73.6765ZM28.0485 81.6649L20.7258 88.9876C21.0229 89.0297 21.3254 88.9636 21.5779 88.8013L30.232 83.8817L28.0485 81.6649ZM33.7203 80.1072L31.0974 78.616L28.7009 80.9992L31.0908 83.3891L33.7136 81.8979C34.5791 81.4053 34.5791 80.5931 33.7136 80.1005L33.7203 80.1072Z" fill="#BD4B44"/>
<path fill-rule="evenodd" clip-rule="evenodd" d="M45 53C49.4183 53 53 49.4183 53 45C53 40.5817 49.4183 37 45 37C40.5817 37 37 40.5817 37 45C37 49.4183 40.5817 53 45 53ZM50.917 46C50.9716 45.6748 51 45.3407 51 45C51 44.6593 50.9716 44.3252 50.917 44H48.4654C48.4886 44.3344 48.5 44.6685 48.5 45C48.5 45.3315 48.4886 45.6656 48.4654 46H50.917ZM46.4604 46C46.4866 45.6714 46.5 45.3373 46.5 45C46.5 44.6627 46.4866 44.3286 46.4604 44H43.5396C43.5134 44.3286 43.5 44.6627 43.5 45C43.5 45.3373 43.5134 45.6714 43.5396 46H46.4604ZM48.1808 42H50.1973C49.5407 40.8648 48.5228 39.9648 47.3009 39.457C47.6929 40.2408 47.9838 41.1042 48.1808 42ZM45 39.4988C45.4881 40.1787 45.8685 41.0369 46.1242 42H43.8758C44.1315 41.0369 44.5119 40.1787 45 39.4988ZM46.1242 48C45.8685 48.9631 45.4881 49.8213 45 50.5012C44.5119 49.8213 44.1315 48.9631 43.8758 48H46.1242ZM47.3009 50.543C47.6929 49.7592 47.9838 48.8958 48.1808 48H50.1973C49.5407 49.1352 48.5228 50.0352 47.3009 50.543ZM41.8192 42C42.0162 41.1042 42.3071 40.2408 42.6991 39.457C41.4772 39.9648 40.4593 40.8648 39.8027 42H41.8192ZM41.5 45C41.5 44.6685 41.5114 44.3344 41.5346 44H39.083C39.0284 44.3252 39 44.6593 39 45C39 45.3407 39.0284 45.6748 39.083 46H41.5346C41.5114 45.6656 41.5 45.3315 41.5 45ZM39.8027 48H41.8192C42.0162 48.8958 42.3071 49.7592 42.6991 50.543C41.4772 50.0352 40.4593 49.1352 39.8027 48Z" fill="#555555"/>
<path fill-rule="evenodd" clip-rule="evenodd" d="M45 71C49.4183 71 53 67.4183 53 63C53 58.5817 49.4183 55 45 55C40.5817 55 37 58.5817 37 63C37 67.4183 40.5817 71 45 71ZM50.917 64C50.9716 63.6748 51 63.3407 51 63C51 62.6593 50.9716 62.3252 50.917 62H48.4654C48.4886 62.3344 48.5 62.6685 48.5 63C48.5 63.3315 48.4886 63.6656 48.4654 64H50.917ZM46.4604 64C46.4866 63.6714 46.5 63.3373 46.5 63C46.5 62.6627 46.4866 62.3286 46.4604 62H43.5396C43.5134 62.3286 43.5 62.6627 43.5 63C43.5 63.3373 43.5134 63.6714 43.5396 64H46.4604ZM48.1808 60H50.1973C49.5407 58.8648 48.5228 57.9648 47.3009 57.457C47.6929 58.2408 47.9838 59.1042 48.1808 60ZM45 57.4988C45.4881 58.1787 45.8685 59.0369 46.1242 60H43.8758C44.1315 59.0369 44.5119 58.1787 45 57.4988ZM46.1242 66C45.8685 66.9631 45.4881 67.8213 45 68.5012C44.5119 67.8213 44.1315 66.9631 43.8758 66H46.1242ZM47.3009 68.543C47.6929 67.7592 47.9838 66.8958 48.1808 66H50.1973C49.5407 67.1352 48.5228 68.0352 47.3009 68.543ZM41.8192 60C42.0162 59.1042 42.3071 58.2408 42.6991 57.457C41.4772 57.9648 40.4593 58.8648 39.8027 60H41.8192ZM41.5 63C41.5 62.6685 41.5114 62.3344 41.5346 62H39.083C39.0284 62.3252 39 62.6593 39 63C39 63.3407 39.0284 63.6748 39.083 64H41.5346C41.5114 63.6656 41.5 63.3315 41.5 63ZM39.8027 66H41.8192C42.0162 66.8958 42.3071 67.7592 42.6991 68.543C41.4772 68.0352 40.4593 67.1352 39.8027 66Z" fill="#5B99BC"/>
<path fill-rule="evenodd" clip-rule="evenodd" d="M45 89C49.4183 89 53 85.4183 53 81C53 76.5817 49.4183 73 45 73C40.5817 73 37 76.5817 37 81C37 85.4183 40.5817 89 45 89ZM50.917 82C50.9716 81.6748 51 81.3407 51 81C51 80.6593 50.9716 80.3252 50.917 80H48.4654C48.4886 80.3344 48.5 80.6685 48.5 81C48.5 81.3315 48.4886 81.6656 48.4654 82H50.917ZM46.4604 82C46.4866 81.6714 46.5 81.3373 46.5 81C46.5 80.6627 46.4866 80.3286 46.4604 80H43.5396C43.5134 80.3286 43.5 80.6627 43.5 81C43.5 81.3373 43.5134 81.6714 43.5396 82H46.4604ZM48.1808 78H50.1973C49.5407 76.8648 48.5228 75.9648 47.3009 75.457C47.6929 76.2408 47.9838 77.1042 48.1808 78ZM45 75.4988C45.4881 76.1787 45.8685 77.0369 46.1242 78H43.8758C44.1315 77.0369 44.5119 76.1787 45 75.4988ZM46.1242 84C45.8685 84.9631 45.4881 85.8213 45 86.5012C44.5119 85.8213 44.1315 84.9631 43.8758 84H46.1242ZM47.3009 86.543C47.6929 85.7592 47.9838 84.8958 48.1808 84H50.1973C49.5407 85.1352 48.5228 86.0352 47.3009 86.543ZM41.8192 78C42.0162 77.1042 42.3071 76.2408 42.6991 75.457C41.4772 75.9648 40.4593 76.8648 39.8027 78H41.8192ZM41.5 81C41.5 80.6685 41.5114 80.3344 41.5346 80H39.083C39.0284 80.3252 39 80.6593 39 81C39 81.3407 39.0284 81.6748 39.083 82H41.5346C41.5114 81.6656 41.5 81.3315 41.5 81ZM39.8027 84H41.8192C42.0162 84.8958 42.3071 85.7592 42.6991 86.543C41.4772 86.0352 40.4593 85.1352 39.8027 84Z" fill="#BD4B44"/>
</svg>
